<svg width="179" height="151" viewBox="0 0 179 151" fill="none" xmlns="http://www.w3.org/2000/svg">
<path d="M108.176 35.8299C103.286 30.823 96.4543 27.7139 88.8947 27.7139C74.0257 27.7139 61.9719 39.7425 61.9719 54.5807C61.9719 66.4349 69.6652 76.496 80.3411 80.0631C80.8942 80.2479 81.4553 80.4153 82.0238 80.5646M115.713 56.9595C114.724 68.2178 106.775 77.4843 96.1863 80.4505" stroke="black" stroke-width="3.20182" stroke-linecap="round" stroke-linejoin="round"/>
<path d="M68.5033 58.89L86.4666 77.1502C87.5794 77.5729 88.3965 77.5955 89.5842 77.2986C90.7718 77.0017 135.161 31.5738 135.161 31.5738C135.784 30.0963 135.615 29.1795 134.567 27.417C132.913 25.526 131.86 24.9949 129.816 24.7448C128.73 24.95 128.227 25.8759 126.698 27.2686L107.251 46.568L88.2481 65.5705L74.4416 52.3578C72.8085 52.0609 72.128 52.3897 71.027 53.2486L68.6517 55.327C67.5752 57.4906 67.9094 57.9992 68.5033 58.89Z" fill="white" stroke="black" stroke-width="3.20182"/>
<path d="M125.808 21.6272C126.013 21.1035 126.138 21.2174 125.957 20.588L117.792 13.3136C116.886 12.5608 116.043 12.4424 115.268 13.1651C114.493 13.8879 109.181 18.6581 109.181 18.6581L108.29 19.2519C104.43 16.8766 102.055 15.9858 98.0467 15.0951L97.156 10.3445L96.5622 6.63303C95.9326 5.68887 95.4591 5.36222 94.4838 5H83.6464C82.435 5.19841 81.8946 5.75568 81.4195 6.33611L79.7865 15.2435C75.6126 16.2115 73.4387 17.328 69.8399 19.2519L62.7139 13.3136C61.6962 12.7684 61.1477 12.8364 60.1902 13.3136L51.7281 21.1818C50.8273 22.0945 51.0667 23.1453 51.2827 23.8541L54.1034 27.8624L56.6272 31.2769C53.1297 36.9816 52.0584 39.6462 50.8374 46.4195L46.2352 47.4587L41.9299 48.4979C40.7897 48.974 40.2984 49.325 40 50.2794V62.6014C40.476 63.7206 40.8645 64.1626 41.9299 64.3828L50.2435 65.2736C51.9926 70.2826 53.4806 72.8139 56.3303 77.1502L51.5797 84.2761C50.988 85.3194 50.9567 85.9339 51.5797 87.0968L60.4871 94.965C61.3307 95.3004 61.9863 95.3519 63.0109 94.965L69.6914 89.0267C73.3131 91.1338 75.5579 92.0084 79.935 93.0351L81.2711 101.497C81.5659 102.676 82.0995 102.955 83.201 103.279H94.4838C95.675 102.838 96.1783 102.045 96.7106 101.2L98.0467 92.8866C102.305 91.746 104.332 91.0386 108.29 88.8783L115.268 94.965C116.137 95.4565 116.625 95.3643 117.495 94.965L126.402 86.6514C126.914 85.9304 127.067 85.4441 126.551 84.4246L121.355 77.0017C124.504 72.6809 126.144 70.3329 127.887 65.2736L135.606 64.0859C136.855 63.784 137.483 63.1725 137.833 62.156V50.131C137.405 49.0763 136.995 48.7509 136.052 48.4979L127.887 47.0134C127.46 46.4759 127.738 46.8649 127.441 46.1226" stroke="black" stroke-width="3.20182" stroke-linecap="round"/>
<mask id="path-4-outside-1_3_29" maskUnits="userSpaceOnUse" x="4" y="115" width="167" height="20" fill="black">
<rect fill="white" x="4" y="115" width="167" height="20"/>
<path d="M12.9224 134H10.835V117.984H5.21973V116.153H18.5132V117.984H12.9224V134ZM33.4048 134L31.2075 128.336H24.0542L21.8691 134H19.7695L26.752 116.08H28.6196L35.5532 134H33.4048ZM30.585 126.493L28.4976 120.865C28.4487 120.719 28.3674 120.479 28.2534 120.145C28.1476 119.811 28.0378 119.465 27.9238 119.107C27.8099 118.749 27.7163 118.46 27.6431 118.241C27.5617 118.574 27.4722 118.908 27.3745 119.242C27.285 119.567 27.1955 119.872 27.106 120.157C27.0164 120.434 26.9391 120.67 26.874 120.865L24.75 126.493H30.585ZM49.1021 129.251C49.1021 130.309 48.8376 131.213 48.3086 131.961C47.7878 132.702 47.0553 133.268 46.1113 133.658C45.1673 134.049 44.0565 134.244 42.7788 134.244C42.1034 134.244 41.4645 134.212 40.8623 134.146C40.2601 134.081 39.7067 133.988 39.2021 133.866C38.6976 133.744 38.2541 133.593 37.8716 133.414V131.424C38.4819 131.677 39.2266 131.913 40.1055 132.132C40.9844 132.344 41.904 132.45 42.8643 132.45C43.7594 132.45 44.5163 132.332 45.1348 132.096C45.7533 131.852 46.2212 131.506 46.5386 131.058C46.8641 130.602 47.0269 130.057 47.0269 129.422C47.0269 128.812 46.8926 128.303 46.624 127.896C46.3555 127.481 45.9079 127.107 45.2812 126.773C44.6628 126.432 43.8164 126.069 42.7422 125.687C41.9854 125.418 41.318 125.125 40.7402 124.808C40.1624 124.483 39.6782 124.116 39.2876 123.709C38.897 123.303 38.5999 122.831 38.3965 122.293C38.2012 121.756 38.1035 121.142 38.1035 120.45C38.1035 119.498 38.3436 118.684 38.8237 118.009C39.312 117.325 39.9834 116.804 40.8379 116.446C41.7005 116.08 42.6893 115.897 43.8042 115.897C44.7563 115.897 45.6353 115.986 46.4409 116.166C47.2547 116.345 47.9993 116.585 48.6748 116.886L48.0278 118.668C47.3849 118.399 46.7013 118.176 45.9771 117.997C45.2609 117.818 44.5203 117.728 43.7554 117.728C42.9904 117.728 42.3434 117.842 41.8145 118.07C41.2936 118.29 40.8949 118.603 40.6182 119.01C40.3415 119.417 40.2031 119.901 40.2031 120.462C40.2031 121.089 40.3333 121.61 40.5938 122.025C40.8623 122.44 41.2855 122.81 41.8633 123.136C42.4492 123.453 43.2223 123.787 44.1826 124.137C45.2324 124.519 46.1235 124.926 46.856 125.357C47.5884 125.781 48.1458 126.301 48.5283 126.92C48.9108 127.53 49.1021 128.307 49.1021 129.251ZM66.6182 134H64.1646L57.7314 125.321L55.8271 127.03V134H53.752V116.153H55.8271V125.052C56.291 124.523 56.7671 123.998 57.2554 123.478C57.7437 122.949 58.2279 122.416 58.708 121.878L63.9204 116.153H66.3496L59.2451 123.893L66.6182 134ZM68.6191 128.189V126.383H74.6738V128.189H68.6191ZM86.7456 124.649H92.9834V133.304C92.0475 133.622 91.0832 133.858 90.0903 134.012C89.1056 134.167 88.0029 134.244 86.7822 134.244C84.9268 134.244 83.3602 133.874 82.0825 133.133C80.813 132.393 79.8486 131.339 79.1895 129.972C78.5303 128.596 78.2007 126.965 78.2007 125.077C78.2007 123.229 78.5628 121.618 79.2871 120.243C80.0195 118.867 81.0734 117.801 82.4487 117.044C83.8322 116.279 85.4924 115.897 87.4292 115.897C88.422 115.897 89.362 115.991 90.249 116.178C91.1442 116.357 91.9743 116.613 92.7393 116.947L91.9458 118.753C91.2866 118.469 90.5583 118.224 89.7607 118.021C88.9714 117.818 88.1535 117.716 87.3071 117.716C85.8504 117.716 84.6012 118.017 83.5596 118.619C82.526 119.221 81.7326 120.072 81.1792 121.17C80.634 122.269 80.3613 123.571 80.3613 125.077C80.3613 126.566 80.6014 127.864 81.0815 128.971C81.5617 130.069 82.3104 130.924 83.3276 131.534C84.3449 132.145 85.6551 132.45 87.2583 132.45C88.064 132.45 88.7557 132.405 89.3335 132.315C89.9113 132.218 90.4362 132.104 90.9082 131.974V126.505H86.7456V124.649ZM108.241 134H98.3047V116.153H108.241V117.984H100.38V123.758H107.79V125.565H100.38V132.169H108.241V134ZM127.149 134H124.756L115.027 119.01H114.93C114.954 119.409 114.983 119.864 115.015 120.377C115.048 120.882 115.072 121.423 115.088 122C115.113 122.57 115.125 123.152 115.125 123.746V134H113.196V116.153H115.577L125.269 131.095H125.354C125.338 130.81 125.318 130.407 125.293 129.886C125.269 129.357 125.245 128.792 125.22 128.189C125.204 127.579 125.196 127.014 125.196 126.493V116.153H127.149V134ZM133.02 134V116.153H135.095V134H133.02ZM154.503 116.153V127.701C154.503 128.963 154.247 130.086 153.734 131.07C153.229 132.055 152.464 132.832 151.439 133.402C150.414 133.963 149.128 134.244 147.582 134.244C145.376 134.244 143.696 133.646 142.54 132.45C141.393 131.253 140.819 129.654 140.819 127.652V116.153H142.906V127.713C142.906 129.227 143.305 130.395 144.103 131.217C144.908 132.039 146.109 132.45 147.704 132.45C148.794 132.45 149.685 132.254 150.377 131.864C151.077 131.465 151.594 130.912 151.927 130.204C152.269 129.487 152.44 128.661 152.44 127.726V116.153H154.503ZM170.31 129.251C170.31 130.309 170.046 131.213 169.517 131.961C168.996 132.702 168.263 133.268 167.319 133.658C166.375 134.049 165.264 134.244 163.987 134.244C163.311 134.244 162.673 134.212 162.07 134.146C161.468 134.081 160.915 133.988 160.41 133.866C159.906 133.744 159.462 133.593 159.08 133.414V131.424C159.69 131.677 160.435 131.913 161.313 132.132C162.192 132.344 163.112 132.45 164.072 132.45C164.967 132.45 165.724 132.332 166.343 132.096C166.961 131.852 167.429 131.506 167.747 131.058C168.072 130.602 168.235 130.057 168.235 129.422C168.235 128.812 168.101 128.303 167.832 127.896C167.563 127.481 167.116 127.107 166.489 126.773C165.871 126.432 165.024 126.069 163.95 125.687C163.193 125.418 162.526 125.125 161.948 124.808C161.37 124.483 160.886 124.116 160.496 123.709C160.105 123.303 159.808 122.831 159.604 122.293C159.409 121.756 159.312 121.142 159.312 120.45C159.312 119.498 159.552 118.684 160.032 118.009C160.52 117.325 161.191 116.804 162.046 116.446C162.909 116.08 163.897 115.897 165.012 115.897C165.964 115.897 166.843 115.986 167.649 116.166C168.463 116.345 169.207 116.585 169.883 116.886L169.236 118.668C168.593 118.399 167.909 118.176 167.185 117.997C166.469 117.818 165.728 117.728 164.963 117.728C164.198 117.728 163.551 117.842 163.022 118.07C162.502 118.29 162.103 118.603 161.826 119.01C161.549 119.417 161.411 119.901 161.411 120.462C161.411 121.089 161.541 121.61 161.802 122.025C162.07 122.44 162.493 122.81 163.071 123.136C163.657 123.453 164.43 123.787 165.391 124.137C166.44 124.519 167.332 124.926 168.064 125.357C168.796 125.781 169.354 126.301 169.736 126.92C170.119 127.53 170.31 128.307 170.31 129.251Z"/>
</mask>
<path d="M12.9224 134H10.835V117.984H5.21973V116.153H18.5132V117.984H12.9224V134ZM33.4048 134L31.2075 128.336H24.0542L21.8691 134H19.7695L26.752 116.08H28.6196L35.5532 134H33.4048ZM30.585 126.493L28.4976 120.865C28.4487 120.719 28.3674 120.479 28.2534 120.145C28.1476 119.811 28.0378 119.465 27.9238 119.107C27.8099 118.749 27.7163 118.46 27.6431 118.241C27.5617 118.574 27.4722 118.908 27.3745 119.242C27.285 119.567 27.1955 119.872 27.106 120.157C27.0164 120.434 26.9391 120.67 26.874 120.865L24.75 126.493H30.585ZM49.1021 129.251C49.1021 130.309 48.8376 131.213 48.3086 131.961C47.7878 132.702 47.0553 133.268 46.1113 133.658C45.1673 134.049 44.0565 134.244 42.7788 134.244C42.1034 134.244 41.4645 134.212 40.8623 134.146C40.2601 134.081 39.7067 133.988 39.2021 133.866C38.6976 133.744 38.2541 133.593 37.8716 133.414V131.424C38.4819 131.677 39.2266 131.913 40.1055 132.132C40.9844 132.344 41.904 132.45 42.8643 132.45C43.7594 132.45 44.5163 132.332 45.1348 132.096C45.7533 131.852 46.2212 131.506 46.5386 131.058C46.8641 130.602 47.0269 130.057 47.0269 129.422C47.0269 128.812 46.8926 128.303 46.624 127.896C46.3555 127.481 45.9079 127.107 45.2812 126.773C44.6628 126.432 43.8164 126.069 42.7422 125.687C41.9854 125.418 41.318 125.125 40.7402 124.808C40.1624 124.483 39.6782 124.116 39.2876 123.709C38.897 123.303 38.5999 122.831 38.3965 122.293C38.2012 121.756 38.1035 121.142 38.1035 120.45C38.1035 119.498 38.3436 118.684 38.8237 118.009C39.312 117.325 39.9834 116.804 40.8379 116.446C41.7005 116.08 42.6893 115.897 43.8042 115.897C44.7563 115.897 45.6353 115.986 46.4409 116.166C47.2547 116.345 47.9993 116.585 48.6748 116.886L48.0278 118.668C47.3849 118.399 46.7013 118.176 45.9771 117.997C45.2609 117.818 44.5203 117.728 43.7554 117.728C42.9904 117.728 42.3434 117.842 41.8145 118.07C41.2936 118.29 40.8949 118.603 40.6182 119.01C40.3415 119.417 40.2031 119.901 40.2031 120.462C40.2031 121.089 40.3333 121.61 40.5938 122.025C40.8623 122.44 41.2855 122.81 41.8633 123.136C42.4492 123.453 43.2223 123.787 44.1826 124.137C45.2324 124.519 46.1235 124.926 46.856 125.357C47.5884 125.781 48.1458 126.301 48.5283 126.92C48.9108 127.53 49.1021 128.307 49.1021 129.251ZM66.6182 134H64.1646L57.7314 125.321L55.8271 127.03V134H53.752V116.153H55.8271V125.052C56.291 124.523 56.7671 123.998 57.2554 123.478C57.7437 122.949 58.2279 122.416 58.708 121.878L63.9204 116.153H66.3496L59.2451 123.893L66.6182 134ZM68.6191 128.189V126.383H74.6738V128.189H68.6191ZM86.7456 124.649H92.9834V133.304C92.0475 133.622 91.0832 133.858 90.0903 134.012C89.1056 134.167 88.0029 134.244 86.7822 134.244C84.9268 134.244 83.3602 133.874 82.0825 133.133C80.813 132.393 79.8486 131.339 79.1895 129.972C78.5303 128.596 78.2007 126.965 78.2007 125.077C78.2007 123.229 78.5628 121.618 79.2871 120.243C80.0195 118.867 81.0734 117.801 82.4487 117.044C83.8322 116.279 85.4924 115.897 87.4292 115.897C88.422 115.897 89.362 115.991 90.249 116.178C91.1442 116.357 91.9743 116.613 92.7393 116.947L91.9458 118.753C91.2866 118.469 90.5583 118.224 89.7607 118.021C88.9714 117.818 88.1535 117.716 87.3071 117.716C85.8504 117.716 84.6012 118.017 83.5596 118.619C82.526 119.221 81.7326 120.072 81.1792 121.17C80.634 122.269 80.3613 123.571 80.3613 125.077C80.3613 126.566 80.6014 127.864 81.0815 128.971C81.5617 130.069 82.3104 130.924 83.3276 131.534C84.3449 132.145 85.6551 132.45 87.2583 132.45C88.064 132.45 88.7557 132.405 89.3335 132.315C89.9113 132.218 90.4362 132.104 90.9082 131.974V126.505H86.7456V124.649ZM108.241 134H98.3047V116.153H108.241V117.984H100.38V123.758H107.79V125.565H100.38V132.169H108.241V134ZM127.149 134H124.756L115.027 119.01H114.93C114.954 119.409 114.983 119.864 115.015 120.377C115.048 120.882 115.072 121.423 115.088 122C115.113 122.57 115.125 123.152 115.125 123.746V134H113.196V116.153H115.577L125.269 131.095H125.354C125.338 130.81 125.318 130.407 125.293 129.886C125.269 129.357 125.245 128.792 125.22 128.189C125.204 127.579 125.196 127.014 125.196 126.493V116.153H127.149V134ZM133.02 134V116.153H135.095V134H133.02ZM154.503 116.153V127.701C154.503 128.963 154.247 130.086 153.734 131.07C153.229 132.055 152.464 132.832 151.439 133.402C150.414 133.963 149.128 134.244 147.582 134.244C145.376 134.244 143.696 133.646 142.54 132.45C141.393 131.253 140.819 129.654 140.819 127.652V116.153H142.906V127.713C142.906 129.227 143.305 130.395 144.103 131.217C144.908 132.039 146.109 132.45 147.704 132.45C148.794 132.45 149.685 132.254 150.377 131.864C151.077 131.465 151.594 130.912 151.927 130.204C152.269 129.487 152.44 128.661 152.44 127.726V116.153H154.503ZM170.31 129.251C170.31 130.309 170.046 131.213 169.517 131.961C168.996 132.702 168.263 133.268 167.319 133.658C166.375 134.049 165.264 134.244 163.987 134.244C163.311 134.244 162.673 134.212 162.07 134.146C161.468 134.081 160.915 133.988 160.41 133.866C159.906 133.744 159.462 133.593 159.08 133.414V131.424C159.69 131.677 160.435 131.913 161.313 132.132C162.192 132.344 163.112 132.45 164.072 132.45C164.967 132.45 165.724 132.332 166.343 132.096C166.961 131.852 167.429 131.506 167.747 131.058C168.072 130.602 168.235 130.057 168.235 129.422C168.235 128.812 168.101 128.303 167.832 127.896C167.563 127.481 167.116 127.107 166.489 126.773C165.871 126.432 165.024 126.069 163.95 125.687C163.193 125.418 162.526 125.125 161.948 124.808C161.37 124.483 160.886 124.116 160.496 123.709C160.105 123.303 159.808 122.831 159.604 122.293C159.409 121.756 159.312 121.142 159.312 120.45C159.312 119.498 159.552 118.684 160.032 118.009C160.52 117.325 161.191 116.804 162.046 116.446C162.909 116.08 163.897 115.897 165.012 115.897C165.964 115.897 166.843 115.986 167.649 116.166C168.463 116.345 169.207 116.585 169.883 116.886L169.236 118.668C168.593 118.399 167.909 118.176 167.185 117.997C166.469 117.818 165.728 117.728 164.963 117.728C164.198 117.728 163.551 117.842 163.022 118.07C162.502 118.29 162.103 118.603 161.826 119.01C161.549 119.417 161.411 119.901 161.411 120.462C161.411 121.089 161.541 121.61 161.802 122.025C162.07 122.44 162.493 122.81 163.071 123.136C163.657 123.453 164.43 123.787 165.391 124.137C166.44 124.519 167.332 124.926 168.064 125.357C168.796 125.781 169.354 126.301 169.736 126.92C170.119 127.53 170.31 128.307 170.31 129.251Z" fill="black"/>
<path d="M12.9224 134V134.6H13.5224V134H12.9224ZM10.835 134H10.235V134.6H10.835V134ZM10.835 117.984H11.435V117.384H10.835V117.984ZM5.21973 117.984H4.61973V118.584H5.21973V117.984ZM5.21973 116.153V115.553H4.61973V116.153H5.21973ZM18.5132 116.153H19.1132V115.553H18.5132V116.153ZM18.5132 117.984V118.584H19.1132V117.984H18.5132ZM12.9224 117.984V117.384H12.3224V117.984H12.9224ZM12.9224 134V133.4H10.835V134V134.6H12.9224V134ZM10.835 134H11.435V117.984H10.835H10.235V134H10.835ZM10.835 117.984V117.384H5.21973V117.984V118.584H10.835V117.984ZM5.21973 117.984H5.81973V116.153H5.21973H4.61973V117.984H5.21973ZM5.21973 116.153V116.753H18.5132V116.153V115.553H5.21973V116.153ZM18.5132 116.153H17.9132V117.984H18.5132H19.1132V116.153H18.5132ZM18.5132 117.984V117.384H12.9224V117.984V118.584H18.5132V117.984ZM12.9224 117.984H12.3224V134H12.9224H13.5224V117.984H12.9224ZM33.4048 134L32.8454 134.217L32.994 134.6H33.4048V134ZM31.2075 128.336L31.7669 128.119L31.6183 127.736H31.2075V128.336ZM24.0542 128.336V127.736H23.6426L23.4944 128.12L24.0542 128.336ZM21.8691 134V134.6H22.2808L22.4289 134.216L21.8691 134ZM19.7695 134L19.2105 133.782L18.8918 134.6H19.7695V134ZM26.752 116.08V115.48H26.3418L26.1929 115.862L26.752 116.08ZM28.6196 116.08L29.1792 115.864L29.0308 115.48H28.6196V116.08ZM35.5532 134V134.6H36.4287L36.1128 133.783L35.5532 134ZM30.585 126.493V127.093H31.4475L31.1475 126.284L30.585 126.493ZM28.4976 120.865L27.9283 121.055L27.9315 121.064L27.935 121.074L28.4976 120.865ZM28.2534 120.145L27.6813 120.326L27.6856 120.339L28.2534 120.145ZM27.6431 118.241L28.2123 118.051L27.5537 116.075L27.0602 118.099L27.6431 118.241ZM27.3745 119.242L26.7986 119.073L26.796 119.083L27.3745 119.242ZM27.106 120.157L27.6768 120.342L27.6784 120.337L27.106 120.157ZM26.874 120.865L27.4354 121.077L27.4395 121.066L27.4432 121.055L26.874 120.865ZM24.75 126.493L24.1887 126.281L23.8822 127.093H24.75V126.493ZM33.4048 134L33.9642 133.783L31.7669 128.119L31.2075 128.336L30.6481 128.553L32.8454 134.217L33.4048 134ZM31.2075 128.336V127.736H24.0542V128.336V128.936H31.2075V128.336ZM24.0542 128.336L23.4944 128.12L21.3094 133.784L21.8691 134L22.4289 134.216L24.614 128.552L24.0542 128.336ZM21.8691 134V133.4H19.7695V134V134.6H21.8691V134ZM19.7695 134L20.3286 134.218L27.311 116.298L26.752 116.08L26.1929 115.862L19.2105 133.782L19.7695 134ZM26.752 116.08V116.68H28.6196V116.08V115.48H26.752V116.08ZM28.6196 116.08L28.0601 116.297L34.9936 134.217L35.5532 134L36.1128 133.783L29.1792 115.864L28.6196 116.08ZM35.5532 134V133.4H33.4048V134V134.6H35.5532V134ZM30.585 126.493L31.1475 126.284L29.0601 120.657L28.4976 120.865L27.935 121.074L30.0224 126.701L30.585 126.493ZM28.4976 120.865L29.0668 120.675C29.0172 120.527 28.9352 120.285 28.8212 119.951L28.2534 120.145L27.6856 120.339C27.7995 120.672 27.8803 120.911 27.9283 121.055L28.4976 120.865ZM28.2534 120.145L28.8254 119.964C28.7195 119.63 28.6096 119.284 28.4956 118.925L27.9238 119.107L27.3521 119.289C27.4659 119.647 27.5758 119.993 27.6815 120.326L28.2534 120.145ZM27.9238 119.107L28.4956 118.925C28.3813 118.566 28.2867 118.274 28.2123 118.051L27.6431 118.241L27.0739 118.43C27.1459 118.646 27.2385 118.932 27.3521 119.289L27.9238 119.107ZM27.6431 118.241L27.0602 118.099C26.981 118.423 26.8938 118.748 26.7987 119.073L27.3745 119.242L27.9504 119.41C28.0505 119.068 28.1424 118.726 28.226 118.383L27.6431 118.241ZM27.3745 119.242L26.796 119.083C26.7081 119.402 26.6207 119.7 26.5336 119.977L27.106 120.157L27.6784 120.337C27.7703 120.045 27.8618 119.732 27.953 119.401L27.3745 119.242ZM27.106 120.157L26.5351 119.973C26.4459 120.248 26.3692 120.482 26.3048 120.675L26.874 120.865L27.4432 121.055C27.5091 120.857 27.587 120.62 27.6768 120.342L27.106 120.157ZM26.874 120.865L26.3127 120.653L24.1887 126.281L24.75 126.493L25.3113 126.705L27.4354 121.077L26.874 120.865ZM24.75 126.493V127.093H30.585V126.493V125.893H24.75V126.493ZM48.3086 131.961L47.8186 131.615L47.8178 131.616L48.3086 131.961ZM37.8716 133.414H37.2716V133.796L37.6172 133.957L37.8716 133.414ZM37.8716 131.424L38.1008 130.87L37.2716 130.527V131.424H37.8716ZM40.1055 132.132L39.9599 132.714L39.965 132.716L40.1055 132.132ZM45.1348 132.096L45.3487 132.656L45.3551 132.654L45.1348 132.096ZM46.5386 131.058L46.0503 130.709L46.0491 130.711L46.5386 131.058ZM46.624 127.896L46.1203 128.222L46.1233 128.227L46.624 127.896ZM45.2812 126.773L44.991 127.299L44.9993 127.303L45.2812 126.773ZM42.7422 125.687L42.9434 125.122L42.9428 125.122L42.7422 125.687ZM40.7402 124.808L40.4457 125.331L40.4514 125.334L40.7402 124.808ZM38.3965 122.293L37.8326 122.499L37.8354 122.506L38.3965 122.293ZM38.8237 118.009L38.3355 117.66L38.3347 117.661L38.8237 118.009ZM40.8379 116.446L41.0698 117L41.0724 116.999L40.8379 116.446ZM46.4409 116.166L46.3108 116.751L46.312 116.752L46.4409 116.166ZM48.6748 116.886L49.2388 117.09L49.4295 116.565L48.9191 116.338L48.6748 116.886ZM48.0278 118.668L47.7966 119.222L48.3771 119.464L48.5918 118.873L48.0278 118.668ZM45.9771 117.997L45.8315 118.579L45.8331 118.579L45.9771 117.997ZM41.8145 118.07L42.0477 118.623L42.0518 118.621L41.8145 118.07ZM40.6182 119.01L40.122 118.672L40.6182 119.01ZM40.5938 122.025L40.0855 122.344L40.09 122.351L40.5938 122.025ZM41.8633 123.136L41.5687 123.659L41.5775 123.663L41.8633 123.136ZM44.1826 124.137L43.9772 124.7L43.9772 124.7L44.1826 124.137ZM46.856 125.357L46.5515 125.874L46.5558 125.877L46.856 125.357ZM48.5283 126.92L48.018 127.236L48.0199 127.239L48.5283 126.92ZM49.1021 129.251H48.5021C48.5021 130.205 48.2654 130.983 47.8186 131.615L48.3086 131.961L48.7986 132.308C49.4098 131.443 49.7021 130.414 49.7021 129.251H49.1021ZM48.3086 131.961L47.8178 131.616C47.3706 132.252 46.7346 132.751 45.8819 133.104L46.1113 133.658L46.3407 134.213C47.3761 133.784 48.2049 133.152 48.7994 132.307L48.3086 131.961ZM46.1113 133.658L45.8819 133.104C45.0264 133.458 43.9968 133.644 42.7788 133.644V134.244V134.844C44.1161 134.844 45.3082 134.64 46.3407 134.213L46.1113 133.658ZM42.7788 134.244V133.644C42.1225 133.644 41.5053 133.613 40.9268 133.55L40.8623 134.146L40.7978 134.743C41.4237 134.811 42.0842 134.844 42.7788 134.844V134.244ZM40.8623 134.146L40.9268 133.55C40.3462 133.487 39.8188 133.398 39.3432 133.283L39.2021 133.866L39.0611 134.449C39.5946 134.578 40.1739 134.676 40.7978 134.743L40.8623 134.146ZM39.2021 133.866L39.3432 133.283C38.8692 133.168 38.465 133.029 38.1259 132.871L37.8716 133.414L37.6172 133.957C38.0432 134.157 38.526 134.319 39.0611 134.449L39.2021 133.866ZM37.8716 133.414H38.4716V131.424H37.8716H37.2716V133.414H37.8716ZM37.8716 131.424L37.6424 131.979C38.2878 132.246 39.0622 132.49 39.9599 132.714L40.1055 132.132L40.251 131.55C39.3909 131.335 38.6761 131.108 38.1008 130.87L37.8716 131.424ZM40.1055 132.132L39.965 132.716C40.8927 132.939 41.8596 133.05 42.8643 133.05V132.45V131.85C41.9483 131.85 41.0761 131.749 40.2459 131.549L40.1055 132.132ZM42.8643 132.45V133.05C43.8084 133.05 44.6425 132.926 45.3487 132.656L45.1348 132.096L44.9209 131.535C44.3901 131.738 43.7105 131.85 42.8643 131.85V132.45ZM45.1348 132.096L45.3551 132.654C46.0587 132.376 46.6302 131.966 47.028 131.405L46.5386 131.058L46.0491 130.711C45.8122 131.045 45.4478 131.327 44.9145 131.538L45.1348 132.096ZM46.5386 131.058L47.0268 131.407C47.4345 130.836 47.6269 130.165 47.6269 129.422H47.0269H46.4269C46.4269 129.949 46.2937 130.369 46.0503 130.709L46.5386 131.058ZM47.0269 129.422H47.6269C47.6269 128.724 47.4727 128.093 47.1248 127.566L46.624 127.896L46.1233 128.227C46.3125 128.514 46.4269 128.9 46.4269 129.422H47.0269ZM46.624 127.896L47.1278 127.571C46.7849 127.041 46.2431 126.606 45.5632 126.244L45.2812 126.773L44.9993 127.303C45.5727 127.608 45.9261 127.922 46.1203 128.222L46.624 127.896ZM45.2812 126.773L45.5715 126.248C44.9126 125.884 44.0322 125.509 42.9434 125.122L42.7422 125.687L42.5409 126.252C43.6006 126.63 44.4129 126.979 44.991 127.299L45.2812 126.773ZM42.7422 125.687L42.9428 125.122C42.2101 124.862 41.5733 124.581 41.0291 124.282L40.7402 124.808L40.4514 125.334C41.0628 125.67 41.7606 125.975 42.5415 126.252L42.7422 125.687ZM40.7402 124.808L41.0347 124.285C40.4993 123.984 40.064 123.652 39.7204 123.294L39.2876 123.709L38.8548 124.125C39.2924 124.581 39.8256 124.981 40.4457 125.331L40.7402 124.808ZM39.2876 123.709L39.7204 123.294C39.3868 122.946 39.1329 122.544 38.9576 122.081L38.3965 122.293L37.8354 122.506C38.0669 123.117 38.4071 123.659 38.8548 124.125L39.2876 123.709ZM38.3965 122.293L38.9604 122.088C38.7934 121.629 38.7035 121.086 38.7035 120.45H38.1035H37.5035C37.5035 121.198 37.609 121.883 37.8326 122.499L38.3965 122.293ZM38.1035 120.45H38.7035C38.7035 119.603 38.9152 118.916 39.3128 118.356L38.8237 118.009L38.3347 117.661C37.772 118.453 37.5035 119.393 37.5035 120.45H38.1035ZM38.8237 118.009L39.312 118.358C39.7289 117.774 40.3072 117.319 41.0698 117L40.8379 116.446L40.606 115.893C39.6596 116.289 38.8951 116.877 38.3355 117.66L38.8237 118.009ZM40.8379 116.446L41.0724 116.999C41.8482 116.669 42.7548 116.497 43.8042 116.497V115.897V115.297C42.6237 115.297 41.5529 115.491 40.6034 115.894L40.8379 116.446ZM43.8042 115.897V116.497C44.7191 116.497 45.5538 116.583 46.3108 116.751L46.4409 116.166L46.5711 115.58C45.7167 115.39 44.7936 115.297 43.8042 115.297V115.897ZM46.4409 116.166L46.312 116.752C47.0911 116.923 47.7965 117.151 48.4305 117.434L48.6748 116.886L48.9191 116.338C48.2022 116.018 47.4184 115.766 46.5698 115.58L46.4409 116.166ZM48.6748 116.886L48.1108 116.681L47.4638 118.463L48.0278 118.668L48.5918 118.873L49.2388 117.09L48.6748 116.886ZM48.0278 118.668L48.2591 118.114C47.586 117.833 46.873 117.6 46.121 117.414L45.9771 117.997L45.8331 118.579C46.5296 118.751 47.1839 118.966 47.7966 119.222L48.0278 118.668ZM45.9771 117.997L46.1226 117.414C45.3571 117.223 44.5676 117.128 43.7554 117.128V117.728V118.328C44.4731 118.328 45.1647 118.412 45.8315 118.579L45.9771 117.997ZM43.7554 117.728V117.128C42.9342 117.128 42.2013 117.25 41.5771 117.519L41.8145 118.07L42.0518 118.621C42.4856 118.434 43.0466 118.328 43.7554 118.328V117.728ZM41.8145 118.07L41.5812 117.517C40.9701 117.775 40.473 118.156 40.122 118.672L40.6182 119.01L41.1143 119.347C41.3167 119.05 41.6172 118.804 42.0477 118.623L41.8145 118.07ZM40.6182 119.01L40.122 118.672C39.7684 119.192 39.6031 119.798 39.6031 120.462H40.2031H40.8031C40.8031 120.004 40.9145 119.641 41.1143 119.347L40.6182 119.01ZM40.2031 120.462H39.6031C39.6031 121.171 39.7505 121.81 40.0855 122.344L40.5938 122.025L41.102 121.706C40.9161 121.41 40.8031 121.007 40.8031 120.462H40.2031ZM40.5938 122.025L40.09 122.351C40.4263 122.871 40.934 123.301 41.5688 123.658L41.8633 123.136L42.1578 122.613C41.637 122.32 41.2984 122.009 41.0975 121.699L40.5938 122.025ZM41.8633 123.136L41.5775 123.663C42.1991 124 43.0022 124.345 43.9772 124.7L44.1826 124.137L44.388 123.573C43.4425 123.228 42.6993 122.906 42.1491 122.608L41.8633 123.136ZM44.1826 124.137L43.9772 124.7C45.0027 125.074 45.8586 125.466 46.5515 125.874L46.856 125.357L47.1604 124.84C46.3884 124.386 45.4622 123.964 44.388 123.573L44.1826 124.137ZM46.856 125.357L46.5558 125.877C47.2165 126.259 47.6956 126.714 48.018 127.236L48.5283 126.92L49.0386 126.604C48.5961 125.889 47.9603 125.303 47.1561 124.838L46.856 125.357ZM48.5283 126.92L48.0199 127.239C48.3266 127.728 48.5021 128.386 48.5021 129.251H49.1021H49.7021C49.7021 128.229 49.495 127.333 49.0367 126.601L48.5283 126.92ZM66.6182 134V134.6H67.7985L67.1029 133.646L66.6182 134ZM64.1646 134L63.6825 134.357L63.8624 134.6H64.1646V134ZM57.7314 125.321L58.2135 124.964L57.8211 124.434L57.3307 124.874L57.7314 125.321ZM55.8271 127.03L55.4264 126.583L55.2271 126.762V127.03H55.8271ZM55.8271 134V134.6H56.4271V134H55.8271ZM53.752 134H53.152V134.6H53.752V134ZM53.752 116.153V115.553H53.152V116.153H53.752ZM55.8271 116.153H56.4271V115.553H55.8271V116.153ZM55.8271 125.052H55.2271V126.646L56.2783 125.448L55.8271 125.052ZM57.2554 123.478L57.6931 123.888L57.6963 123.885L57.2554 123.478ZM58.708 121.878L58.2643 121.474L58.2607 121.479L58.708 121.878ZM63.9204 116.153V115.553H63.6553L63.4767 115.749L63.9204 116.153ZM66.3496 116.153L66.7916 116.559L67.7149 115.553H66.3496V116.153ZM59.2451 123.893L58.8031 123.487L58.4707 123.849L58.7604 124.246L59.2451 123.893ZM66.6182 134V133.4H64.1646V134V134.6H66.6182V134ZM64.1646 134L64.6466 133.643L58.2135 124.964L57.7314 125.321L57.2494 125.678L63.6825 134.357L64.1646 134ZM57.7314 125.321L57.3307 124.874L55.4264 126.583L55.8271 127.03L56.2279 127.476L58.1322 125.767L57.7314 125.321ZM55.8271 127.03H55.2271V134H55.8271H56.4271V127.03H55.8271ZM55.8271 134V133.4H53.752V134V134.6H55.8271V134ZM53.752 134H54.352V116.153H53.752H53.152V134H53.752ZM53.752 116.153V116.753H55.8271V116.153V115.553H53.752V116.153ZM55.8271 116.153H55.2271V125.052H55.8271H56.4271V116.153H55.8271ZM55.8271 125.052L56.2783 125.448C56.7377 124.924 57.2093 124.404 57.6931 123.888L57.2554 123.478L56.8176 123.067C56.3249 123.593 55.8443 124.123 55.376 124.657L55.8271 125.052ZM57.2554 123.478L57.6963 123.885C58.1867 123.353 58.6731 122.818 59.1553 122.278L58.708 121.878L58.2607 121.479C57.7827 122.013 57.3006 122.544 56.8145 123.071L57.2554 123.478ZM58.708 121.878L59.1517 122.282L64.3641 116.557L63.9204 116.153L63.4767 115.749L58.2643 121.474L58.708 121.878ZM63.9204 116.153V116.753H66.3496V116.153V115.553H63.9204V116.153ZM66.3496 116.153L65.9076 115.748L58.8031 123.487L59.2451 123.893L59.6871 124.298L66.7916 116.559L66.3496 116.153ZM59.2451 123.893L58.7604 124.246L66.1334 134.354L66.6182 134L67.1029 133.646L59.7299 123.539L59.2451 123.893ZM68.6191 128.189H68.0191V128.789H68.6191V128.189ZM68.6191 126.383V125.783H68.0191V126.383H68.6191ZM74.6738 126.383H75.2738V125.783H74.6738V126.383ZM74.6738 128.189V128.789H75.2738V128.189H74.6738ZM68.6191 128.189H69.2191V126.383H68.6191H68.0191V128.189H68.6191ZM68.6191 126.383V126.983H74.6738V126.383V125.783H68.6191V126.383ZM74.6738 126.383H74.0738V128.189H74.6738H75.2738V126.383H74.6738ZM74.6738 128.189V127.589H68.6191V128.189V128.789H74.6738V128.189ZM86.7456 124.649V124.049H86.1456V124.649H86.7456ZM92.9834 124.649H93.5834V124.049H92.9834V124.649ZM92.9834 133.304L93.1761 133.872L93.5834 133.734V133.304H92.9834ZM90.0903 134.012L89.998 133.419L89.9973 133.419L90.0903 134.012ZM82.0825 133.133L81.7802 133.652L81.7816 133.652L82.0825 133.133ZM79.1895 129.972L78.6484 130.231L78.649 130.232L79.1895 129.972ZM79.2871 120.243L78.7575 119.961L78.7562 119.963L79.2871 120.243ZM82.4487 117.044L82.738 117.57L82.7391 117.57L82.4487 117.044ZM90.249 116.178L90.1251 116.765L90.1314 116.766L90.249 116.178ZM92.7393 116.947L93.2886 117.188L93.5305 116.637L92.9791 116.397L92.7393 116.947ZM91.9458 118.753L91.7078 119.304L92.2553 119.541L92.4952 118.995L91.9458 118.753ZM89.7607 118.021L89.611 118.602L89.6124 118.602L89.7607 118.021ZM83.5596 118.619L83.2593 118.1L83.2575 118.101L83.5596 118.619ZM81.1792 121.17L80.6433 120.9L80.6417 120.904L81.1792 121.17ZM81.0815 128.971L80.5311 129.209L80.5318 129.211L81.0815 128.971ZM83.3276 131.534L83.0189 132.049L83.3276 131.534ZM89.3335 132.315L89.4254 132.908L89.4335 132.907L89.3335 132.315ZM90.9082 131.974L91.0678 132.552L91.5082 132.431V131.974H90.9082ZM90.9082 126.505H91.5082V125.905H90.9082V126.505ZM86.7456 126.505H86.1456V127.105H86.7456V126.505ZM86.7456 124.649V125.249H92.9834V124.649V124.049H86.7456V124.649ZM92.9834 124.649H92.3834V133.304H92.9834H93.5834V124.649H92.9834ZM92.9834 133.304L92.7907 132.736C91.8881 133.042 90.9573 133.27 89.998 133.419L90.0903 134.012L90.1827 134.605C91.209 134.445 92.207 134.201 93.1761 133.872L92.9834 133.304ZM90.0903 134.012L89.9973 133.419C89.0493 133.568 87.9784 133.644 86.7822 133.644V134.244V134.844C88.0275 134.844 89.162 134.765 90.1834 134.605L90.0903 134.012ZM86.7822 134.244V133.644C85.0057 133.644 83.549 133.29 82.3834 132.614L82.0825 133.133L81.7816 133.652C83.1714 134.458 84.8478 134.844 86.7822 134.844V134.244ZM82.0825 133.133L82.3848 132.615C81.2221 131.937 80.339 130.974 79.7299 129.711L79.1895 129.972L78.649 130.232C79.3583 131.703 80.4039 132.849 81.7802 133.652L82.0825 133.133ZM79.1895 129.972L79.7305 129.712C79.1182 128.435 78.8007 126.896 78.8007 125.077H78.2007H77.6007C77.6007 127.034 77.9423 128.758 78.6484 130.231L79.1895 129.972ZM78.2007 125.077H78.8007C78.8007 123.308 79.1469 121.797 79.818 120.522L79.2871 120.243L78.7562 119.963C77.9787 121.439 77.6007 123.15 77.6007 125.077H78.2007ZM79.2871 120.243L79.8167 120.525C80.4939 119.253 81.4639 118.271 82.738 117.57L82.4487 117.044L82.1595 116.519C80.6829 117.331 79.5451 118.482 78.7575 119.961L79.2871 120.243ZM82.4487 117.044L82.7391 117.57C84.0157 116.864 85.5713 116.497 87.4292 116.497V115.897V115.297C85.4134 115.297 83.6487 115.695 82.1584 116.519L82.4487 117.044ZM87.4292 115.897V116.497C88.3843 116.497 89.2825 116.587 90.1251 116.765L90.249 116.178L90.3729 115.591C89.4415 115.394 88.4598 115.297 87.4292 115.297V115.897ZM90.249 116.178L90.1314 116.766C90.9884 116.937 91.7771 117.182 92.4994 117.497L92.7393 116.947L92.9791 116.397C92.1714 116.045 91.3 115.776 90.3667 115.589L90.249 116.178ZM92.7393 116.947L92.1899 116.706L91.3964 118.512L91.9458 118.753L92.4952 118.995L93.2886 117.188L92.7393 116.947ZM91.9458 118.753L92.1838 118.203C91.4917 117.904 90.7329 117.65 89.9091 117.44L89.7607 118.021L89.6124 118.602C90.3836 118.799 91.0815 119.034 91.7078 119.304L91.9458 118.753ZM89.7607 118.021L89.9105 117.44C89.0703 117.223 88.2021 117.116 87.3071 117.116V117.716V118.316C88.1049 118.316 88.8724 118.412 89.611 118.602L89.7607 118.021ZM87.3071 117.716V117.116C85.7672 117.116 84.4097 117.435 83.2593 118.1L83.5596 118.619L83.8599 119.139C84.7928 118.599 85.9337 118.316 87.3071 118.316V117.716ZM83.5596 118.619L83.2575 118.101C82.1207 118.763 81.2474 119.701 80.6433 120.9L81.1792 121.17L81.7151 121.44C82.2178 120.442 82.9314 119.68 83.8616 119.138L83.5596 118.619ZM81.1792 121.17L80.6417 120.904C80.0471 122.102 79.7613 123.499 79.7613 125.077H80.3613H80.9613C80.9613 123.643 81.2208 122.436 81.7166 121.437L81.1792 121.17ZM80.3613 125.077H79.7613C79.7613 126.629 80.0116 128.012 80.5311 129.209L81.0815 128.971L81.632 128.732C81.1912 127.716 80.9613 126.502 80.9613 125.077H80.3613ZM81.0815 128.971L80.5318 129.211C81.0613 130.423 81.8936 131.373 83.0189 132.049L83.3276 131.534L83.6363 131.02C82.7272 130.474 82.0621 129.716 81.6313 128.73L81.0815 128.971ZM83.3276 131.534L83.0189 132.049C84.1567 132.731 85.5833 133.05 87.2583 133.05V132.45V131.85C85.727 131.85 84.5331 131.558 83.6363 131.02L83.3276 131.534ZM87.2583 132.45V133.05C88.0841 133.05 88.8082 133.004 89.4254 132.908L89.3335 132.315L89.2416 131.723C88.7032 131.806 88.0438 131.85 87.2583 131.85V132.45ZM89.3335 132.315L89.4335 132.907C90.0276 132.807 90.5728 132.689 91.0678 132.552L90.9082 131.974L90.7486 131.395C90.2996 131.519 89.795 131.629 89.2335 131.724L89.3335 132.315ZM90.9082 131.974H91.5082V126.505H90.9082H90.3082V131.974H90.9082ZM90.9082 126.505V125.905H86.7456V126.505V127.105H90.9082V126.505ZM86.7456 126.505H87.3456V124.649H86.7456H86.1456V126.505H86.7456ZM108.241 134V134.6H108.841V134H108.241ZM98.3047 134H97.7047V134.6H98.3047V134ZM98.3047 116.153V115.553H97.7047V116.153H98.3047ZM108.241 116.153H108.841V115.553H108.241V116.153ZM108.241 117.984V118.584H108.841V117.984H108.241ZM100.38 117.984V117.384H99.7799V117.984H100.38ZM100.38 123.758H99.7799V124.358H100.38V123.758ZM107.79 123.758H108.39V123.158H107.79V123.758ZM107.79 125.565V126.165H108.39V125.565H107.79ZM100.38 125.565V124.965H99.7799V125.565H100.38ZM100.38 132.169H99.7799V132.769H100.38V132.169ZM108.241 132.169H108.841V131.569H108.241V132.169ZM108.241 134V133.4H98.3047V134V134.6H108.241V134ZM98.3047 134H98.9047V116.153H98.3047H97.7047V134H98.3047ZM98.3047 116.153V116.753H108.241V116.153V115.553H98.3047V116.153ZM108.241 116.153H107.641V117.984H108.241H108.841V116.153H108.241ZM108.241 117.984V117.384H100.38V117.984V118.584H108.241V117.984ZM100.38 117.984H99.7799V123.758H100.38H100.98V117.984H100.38ZM100.38 123.758V124.358H107.79V123.758V123.158H100.38V123.758ZM107.79 123.758H107.19V125.565H107.79H108.39V123.758H107.79ZM107.79 125.565V124.965H100.38V125.565V126.165H107.79V125.565ZM100.38 125.565H99.7799V132.169H100.38H100.98V125.565H100.38ZM100.38 132.169V132.769H108.241V132.169V131.569H100.38V132.169ZM108.241 132.169H107.641V134H108.241H108.841V132.169H108.241ZM127.149 134V134.6H127.749V134H127.149ZM124.756 134L124.253 134.327L124.43 134.6H124.756V134ZM115.027 119.01L115.531 118.683L115.353 118.41H115.027V119.01ZM114.93 119.01V118.41H114.292L114.331 119.046L114.93 119.01ZM115.015 120.377L114.416 120.415L114.416 120.416L115.015 120.377ZM115.088 122L114.489 122.017L114.489 122.026L115.088 122ZM115.125 134V134.6H115.725V134H115.125ZM113.196 134H112.596V134.6H113.196V134ZM113.196 116.153V115.553H112.596V116.153H113.196ZM115.577 116.153L116.08 115.827L115.903 115.553H115.577V116.153ZM125.269 131.095L124.766 131.421L124.943 131.695H125.269V131.095ZM125.354 131.095V131.695H125.99L125.954 131.06L125.354 131.095ZM125.293 129.886L124.694 129.914L124.694 129.914L125.293 129.886ZM125.22 128.189L124.62 128.205L124.621 128.214L125.22 128.189ZM125.196 116.153V115.553H124.596V116.153H125.196ZM127.149 116.153H127.749V115.553H127.149V116.153ZM127.149 134V133.4H124.756V134V134.6H127.149V134ZM124.756 134L125.26 133.673L115.531 118.683L115.027 119.01L114.524 119.336L124.253 134.327L124.756 134ZM115.027 119.01V118.41H114.93V119.01V119.61H115.027V119.01ZM114.93 119.01L114.331 119.046C114.355 119.446 114.384 119.902 114.416 120.415L115.015 120.377L115.614 120.339C115.581 119.827 115.553 119.371 115.529 118.973L114.93 119.01ZM115.015 120.377L114.416 120.416C114.448 120.912 114.473 121.446 114.489 122.017L115.088 122L115.688 121.984C115.672 121.4 115.647 120.851 115.614 120.338L115.015 120.377ZM115.088 122L114.489 122.026C114.513 122.587 114.525 123.16 114.525 123.746H115.125H115.725C115.725 123.144 115.713 122.553 115.688 121.975L115.088 122ZM115.125 123.746H114.525V134H115.125H115.725V123.746H115.125ZM115.125 134V133.4H113.196V134V134.6H115.125V134ZM113.196 134H113.796V116.153H113.196H112.596V134H113.196ZM113.196 116.153V116.753H115.577V116.153V115.553H113.196V116.153ZM115.577 116.153L115.073 116.48L124.766 131.421L125.269 131.095L125.772 130.768L116.08 115.827L115.577 116.153ZM125.269 131.095V131.695H125.354V131.095V130.495H125.269V131.095ZM125.354 131.095L125.954 131.06C125.937 130.779 125.917 130.378 125.893 129.858L125.293 129.886L124.694 129.914C124.719 130.436 124.739 130.841 124.755 131.129L125.354 131.095ZM125.293 129.886L125.893 129.859C125.868 129.331 125.844 128.766 125.82 128.165L125.22 128.189L124.621 128.214C124.645 128.817 124.67 129.384 124.694 129.914L125.293 129.886ZM125.22 128.189L125.82 128.173C125.804 127.568 125.796 127.007 125.796 126.493H125.196H124.596C124.596 127.02 124.604 127.591 124.62 128.205L125.22 128.189ZM125.196 126.493H125.796V116.153H125.196H124.596V126.493H125.196ZM125.196 116.153V116.753H127.149V116.153V115.553H125.196V116.153ZM127.149 116.153H126.549V134H127.149H127.749V116.153H127.149ZM133.02 134H132.42V134.6H133.02V134ZM133.02 116.153V115.553H132.42V116.153H133.02ZM135.095 116.153H135.695V115.553H135.095V116.153ZM135.095 134V134.6H135.695V134H135.095ZM133.02 134H133.62V116.153H133.02H132.42V134H133.02ZM133.02 116.153V116.753H135.095V116.153V115.553H133.02V116.153ZM135.095 116.153H134.495V134H135.095H135.695V116.153H135.095ZM135.095 134V133.4H133.02V134V134.6H135.095V134ZM154.503 116.153H155.103V115.553H154.503V116.153ZM153.734 131.07L153.202 130.793L153.2 130.797L153.734 131.07ZM151.439 133.402L151.727 133.928L151.73 133.926L151.439 133.402ZM142.54 132.45L142.107 132.865L142.108 132.867L142.54 132.45ZM140.819 116.153V115.553H140.219V116.153H140.819ZM142.906 116.153H143.506V115.553H142.906V116.153ZM144.103 131.217L143.672 131.635L143.674 131.637L144.103 131.217ZM150.377 131.864L150.672 132.386L150.674 132.385L150.377 131.864ZM151.927 130.204L151.386 129.945L151.384 129.948L151.927 130.204ZM152.44 116.153V115.553H151.84V116.153H152.44ZM154.503 116.153H153.903V127.701H154.503H155.103V116.153H154.503ZM154.503 127.701H153.903C153.903 128.879 153.664 129.905 153.202 130.793L153.734 131.07L154.266 131.347C154.829 130.266 155.103 129.046 155.103 127.701H154.503ZM153.734 131.07L153.2 130.797C152.753 131.669 152.076 132.362 151.148 132.877L151.439 133.402L151.73 133.926C152.853 133.303 153.706 132.441 154.268 131.344L153.734 131.07ZM151.439 133.402L151.151 132.876C150.238 133.376 149.058 133.644 147.582 133.644V134.244V134.844C149.197 134.844 150.589 134.551 151.727 133.928L151.439 133.402ZM147.582 134.244V133.644C145.484 133.644 143.981 133.078 142.972 132.033L142.54 132.45L142.108 132.867C143.41 134.214 145.269 134.844 147.582 134.844V134.244ZM142.54 132.45L142.973 132.034C141.954 130.972 141.419 129.534 141.419 127.652H140.819H140.219C140.219 129.775 140.831 131.535 142.107 132.865L142.54 132.45ZM140.819 127.652H141.419V116.153H140.819H140.219V127.652H140.819ZM140.819 116.153V116.753H142.906V116.153V115.553H140.819V116.153ZM142.906 116.153H142.306V127.713H142.906H143.506V116.153H142.906ZM142.906 127.713H142.306C142.306 129.331 142.734 130.668 143.672 131.635L144.103 131.217L144.533 130.799C143.876 130.121 143.506 129.123 143.506 127.713H142.906ZM144.103 131.217L143.674 131.637C144.63 132.612 146.011 133.05 147.704 133.05V132.45V131.85C146.206 131.85 145.186 131.465 144.531 130.797L144.103 131.217ZM147.704 132.45V133.05C148.861 133.05 149.863 132.843 150.672 132.386L150.377 131.864L150.082 131.341C149.508 131.666 148.728 131.85 147.704 131.85V132.45ZM150.377 131.864L150.674 132.385C151.478 131.927 152.082 131.283 152.47 130.459L151.927 130.204L151.384 129.948C151.105 130.541 150.676 131.003 150.08 131.342L150.377 131.864ZM151.927 130.204L152.469 130.462C152.855 129.652 153.04 128.735 153.04 127.726H152.44H151.84C151.84 128.588 151.683 129.323 151.386 129.945L151.927 130.204ZM152.44 127.726H153.04V116.153H152.44H151.84V127.726H152.44ZM152.44 116.153V116.753H154.503V116.153V115.553H152.44V116.153ZM169.517 131.961L169.027 131.615L169.026 131.616L169.517 131.961ZM159.08 133.414H158.48V133.796L158.825 133.957L159.08 133.414ZM159.08 131.424L159.309 130.87L158.48 130.527V131.424H159.08ZM161.313 132.132L161.168 132.714L161.173 132.716L161.313 132.132ZM166.343 132.096L166.557 132.656L166.563 132.654L166.343 132.096ZM167.747 131.058L167.258 130.709L167.257 130.711L167.747 131.058ZM167.832 127.896L167.328 128.222L167.331 128.227L167.832 127.896ZM166.489 126.773L166.199 127.299L166.207 127.303L166.489 126.773ZM163.95 125.687L164.151 125.122L164.151 125.122L163.95 125.687ZM161.948 124.808L161.654 125.331L161.659 125.334L161.948 124.808ZM159.604 122.293L159.041 122.499L159.043 122.506L159.604 122.293ZM160.032 118.009L159.543 117.66L159.543 117.661L160.032 118.009ZM162.046 116.446L162.278 117L162.28 116.999L162.046 116.446ZM167.649 116.166L167.519 116.751L167.52 116.752L167.649 116.166ZM169.883 116.886L170.447 117.09L170.637 116.565L170.127 116.338L169.883 116.886ZM169.236 118.668L169.005 119.222L169.585 119.464L169.8 118.873L169.236 118.668ZM167.185 117.997L167.04 118.579L167.041 118.579L167.185 117.997ZM163.022 118.07L163.256 118.623L163.26 118.621L163.022 118.07ZM161.826 119.01L161.33 118.672L161.826 119.01ZM161.802 122.025L161.293 122.344L161.298 122.351L161.802 122.025ZM163.071 123.136L162.777 123.659L162.786 123.663L163.071 123.136ZM165.391 124.137L165.185 124.7L165.185 124.7L165.391 124.137ZM168.064 125.357L167.759 125.874L167.764 125.877L168.064 125.357ZM169.736 126.92L169.226 127.236L169.228 127.239L169.736 126.92ZM170.31 129.251H169.71C169.71 130.205 169.473 130.983 169.027 131.615L169.517 131.961L170.007 132.308C170.618 131.443 170.91 130.414 170.91 129.251H170.31ZM169.517 131.961L169.026 131.616C168.579 132.252 167.943 132.751 167.09 133.104L167.319 133.658L167.549 134.213C168.584 133.784 169.413 133.152 170.007 132.307L169.517 131.961ZM167.319 133.658L167.09 133.104C166.234 133.458 165.205 133.644 163.987 133.644V134.244V134.844C165.324 134.844 166.516 134.64 167.549 134.213L167.319 133.658ZM163.987 134.244V133.644C163.33 133.644 162.713 133.613 162.135 133.55L162.07 134.146L162.006 134.743C162.632 134.811 163.292 134.844 163.987 134.844V134.244ZM162.07 134.146L162.135 133.55C161.554 133.487 161.027 133.398 160.551 133.283L160.41 133.866L160.269 134.449C160.803 134.578 161.382 134.676 162.006 134.743L162.07 134.146ZM160.41 133.866L160.551 133.283C160.077 133.168 159.673 133.029 159.334 132.871L159.08 133.414L158.825 133.957C159.251 134.157 159.734 134.319 160.269 134.449L160.41 133.866ZM159.08 133.414H159.68V131.424H159.08H158.48V133.414H159.08ZM159.08 131.424L158.85 131.979C159.496 132.246 160.27 132.49 161.168 132.714L161.313 132.132L161.459 131.55C160.599 131.335 159.884 131.108 159.309 130.87L159.08 131.424ZM161.313 132.132L161.173 132.716C162.101 132.939 163.068 133.05 164.072 133.05V132.45V131.85C163.156 131.85 162.284 131.749 161.454 131.549L161.313 132.132ZM164.072 132.45V133.05C165.016 133.05 165.85 132.926 166.557 132.656L166.343 132.096L166.129 131.535C165.598 131.738 164.918 131.85 164.072 131.85V132.45ZM166.343 132.096L166.563 132.654C167.267 132.376 167.838 131.966 168.236 131.405L167.747 131.058L167.257 130.711C167.02 131.045 166.656 131.327 166.122 131.538L166.343 132.096ZM167.747 131.058L168.235 131.407C168.643 130.836 168.835 130.165 168.835 129.422H168.235H167.635C167.635 129.949 167.502 130.369 167.258 130.709L167.747 131.058ZM168.235 129.422H168.835C168.835 128.724 168.681 128.093 168.333 127.566L167.832 127.896L167.331 128.227C167.521 128.514 167.635 128.9 167.635 129.422H168.235ZM167.832 127.896L168.336 127.571C167.993 127.041 167.451 126.606 166.771 126.244L166.489 126.773L166.207 127.303C166.781 127.608 167.134 127.922 167.328 128.222L167.832 127.896ZM166.489 126.773L166.779 126.248C166.121 125.884 165.24 125.509 164.151 125.122L163.95 125.687L163.749 126.252C164.809 126.63 165.621 126.979 166.199 127.299L166.489 126.773ZM163.95 125.687L164.151 125.122C163.418 124.862 162.781 124.581 162.237 124.282L161.948 124.808L161.659 125.334C162.271 125.67 162.969 125.975 163.75 126.252L163.95 125.687ZM161.948 124.808L162.243 124.285C161.707 123.984 161.272 123.652 160.928 123.294L160.496 123.709L160.063 124.125C160.5 124.581 161.034 124.981 161.654 125.331L161.948 124.808ZM160.496 123.709L160.928 123.294C160.595 122.946 160.341 122.544 160.166 122.081L159.604 122.293L159.043 122.506C159.275 123.117 159.615 123.659 160.063 124.125L160.496 123.709ZM159.604 122.293L160.168 122.088C160.001 121.629 159.912 121.086 159.912 120.45H159.312H158.712C158.712 121.198 158.817 121.883 159.041 122.499L159.604 122.293ZM159.312 120.45H159.912C159.912 119.603 160.123 118.916 160.521 118.356L160.032 118.009L159.543 117.661C158.98 118.453 158.712 119.393 158.712 120.45H159.312ZM160.032 118.009L160.52 118.358C160.937 117.774 161.515 117.319 162.278 117L162.046 116.446L161.814 115.893C160.868 116.289 160.103 116.877 159.543 117.66L160.032 118.009ZM162.046 116.446L162.28 116.999C163.056 116.669 163.963 116.497 165.012 116.497V115.897V115.297C163.832 115.297 162.761 115.491 161.811 115.894L162.046 116.446ZM165.012 115.897V116.497C165.927 116.497 166.762 116.583 167.519 116.751L167.649 116.166L167.779 115.58C166.925 115.39 166.002 115.297 165.012 115.297V115.897ZM167.649 116.166L167.52 116.752C168.299 116.923 169.004 117.151 169.639 117.434L169.883 116.886L170.127 116.338C169.41 116.018 168.626 115.766 167.778 115.58L167.649 116.166ZM169.883 116.886L169.319 116.681L168.672 118.463L169.236 118.668L169.8 118.873L170.447 117.09L169.883 116.886ZM169.236 118.668L169.467 118.114C168.794 117.833 168.081 117.6 167.329 117.414L167.185 117.997L167.041 118.579C167.738 118.751 168.392 118.966 169.005 119.222L169.236 118.668ZM167.185 117.997L167.331 117.414C166.565 117.223 165.776 117.128 164.963 117.128V117.728V118.328C165.681 118.328 166.373 118.412 167.04 118.579L167.185 117.997ZM164.963 117.728V117.128C164.142 117.128 163.409 117.25 162.785 117.519L163.022 118.07L163.26 118.621C163.694 118.434 164.255 118.328 164.963 118.328V117.728ZM163.022 118.07L162.789 117.517C162.178 117.775 161.681 118.156 161.33 118.672L161.826 119.01L162.322 119.347C162.525 119.05 162.825 118.804 163.256 118.623L163.022 118.07ZM161.826 119.01L161.33 118.672C160.976 119.192 160.811 119.798 160.811 120.462H161.411H162.011C162.011 120.004 162.123 119.641 162.322 119.347L161.826 119.01ZM161.411 120.462H160.811C160.811 121.171 160.959 121.81 161.294 122.344L161.802 122.025L162.31 121.706C162.124 121.41 162.011 121.007 162.011 120.462H161.411ZM161.802 122.025L161.298 122.351C161.634 122.871 162.142 123.301 162.777 123.658L163.071 123.136L163.366 122.613C162.845 122.32 162.506 122.009 162.305 121.699L161.802 122.025ZM163.071 123.136L162.786 123.663C163.407 124 164.21 124.345 165.185 124.7L165.391 124.137L165.596 123.573C164.65 123.228 163.907 122.906 163.357 122.608L163.071 123.136ZM165.391 124.137L165.185 124.7C166.211 125.074 167.067 125.466 167.76 125.874L168.064 125.357L168.368 124.84C167.596 124.386 166.67 123.964 165.596 123.573L165.391 124.137ZM168.064 125.357L167.764 125.877C168.424 126.259 168.904 126.714 169.226 127.236L169.736 126.92L170.247 126.604C169.804 125.889 169.168 125.303 168.364 124.838L168.064 125.357ZM169.736 126.92L169.228 127.239C169.535 127.728 169.71 128.386 169.71 129.251H170.31H170.91C170.91 128.229 170.703 127.333 170.245 126.601L169.736 126.92Z" fill="black" mask="url(#path-4-outside-1_3_29)"/>
</svg>
